<svg enable-background="new 0 0 222 34" viewBox="0 0 222 34" xmlns="http://www.w3.org/2000/svg"><g fill="#fff"><path d="m22.7 8.2-5.3 15.5c-1.7 4.8 1.9 9.8 7 9.8h18.1c5.2 0 9.8-3.2 11.6-8h-23.8c-2 0-3.3-1.9-2.7-3.8l3-8.7c.9-2.5 3.2-4.1 5.8-4.1h15c-.8 2.7-3.3 4.6-6.1 4.6h-44.3l2.5 4c1.7 2.6 4.6 4.3 7.7 4.3h33.5 4.9c3.8 0 7.2-2.2 8.7-5.7l2.5-5.6c2.1-4.7-1.3-9.9-6.4-9.9h-20.9c-4.9-.1-9.2 3-10.8 7.6z"/><path d="m66.1 8.7-9.8 24.9h12.4l8.4-21.3c.8-2 2.8-3.4 4.9-3.4h5.9c1.8 0 3.1 1.8 2.5 3.6l-7.2 21.1h11.5l8.7-24.6c1.5-4.2-1.6-8.5-6.1-8.5h-19.1c-5.3 0-10.1 3.2-12.1 8.2z"/><path d="m208.6.5-3 8.3c-1.2 3.8-1.9 4.3-6 4.3h-2.2c-3.9 0-4.7-1.2-4-4.5l2.5-8.1h-11.5l-3.4 12.1c-1.2 4.1 1.9 8.3 6.1 8.3h13.8l-.7 2c-.4 1.3-1.7 2.2-3 2.2h-13.8c-2.3 0-4.4 1.1-5.7 2.9l-4.1 5.6h28.9c4.1 0 7.8-2.6 9.1-6.5l3.9-11.4 5.5-15.2z"/><path d="m132.8.5-11.6 19.8c-.8 1.3-2.8.8-2.9-.8l-.1-19h-11.5l1.7 27.3c.2 3.3 2.9 5.8 6.2 5.8h4.5c2.6 0 5-1.3 6.5-3.5l19.6-29.6z"/><path d="m172.1.5h-4-10.1-1.6-3.4c-3.9 0-7.4 2.6-8.5 6.4l-.5 1.7c-.3.8-.6 1.6-.8 2.5l-.2 1-.6 2-3.3 11.1c-1.2 4.1 1.9 8.3 6.2 8.3h4 10.1 1.6 3.4c3.9 0 7.4-2.6 8.5-6.4l.5-1.8c.3-.8.6-1.6.8-2.5l.2-1 .6-2 3.3-11.1c1.2-4.1-1.9-8.2-6.2-8.2zm-4.8 12.9-1.5 4.9-.3.9-.1.4c-.1.4-.2.8-.4 1.1l-.2.8c-.5 1.7-2 2.8-3.8 2.8h-1.5-.5-4.5-1.8c-1.9 0-3.3-1.8-2.7-3.6l1.5-4.9.3-.9.1-.4c.1-.4.2-.8.4-1.1l.2-.8c.5-1.7 2-2.8 3.8-2.8h1.5.7 4.5 1.8c1.7-.1 3.1 1.7 2.5 3.6z"/></g></svg>